HIERARCHY
ROOT Hips
{
    OFFSET   0.000000   0.000000   0.000000
    CHANNELS 6 Xposition Yposition Zposition Zrotation Xrotation Yrotation
    JOINT Chest
    {
        OFFSET   0.000000   8.007240   0.000000
        CHANNELS 3 Zrotation Xrotation Yrotation
        JOINT Chest2
        {
            OFFSET   0.000000  22.077100   0.000000
            CHANNELS 3 Zrotation Xrotation Yrotation
            JOINT Neck
            {
                OFFSET   0.000000  23.254800   0.000000
                CHANNELS 3 Zrotation Xrotation Yrotation
                JOINT Head
                {
                    OFFSET   0.000000  14.370000   1.956600
                    CHANNELS 3 Zrotation Xrotation Yrotation
                    End Site
                    {
                        OFFSET   0.000000  19.566000   0.000000
                    }
                }
            }
            JOINT LeftCollar
            {
                OFFSET   3.911900  19.017000  -0.467064
                CHANNELS 3 Zrotation Xrotation Yrotation
                JOINT LeftShoulder
                {
                    OFFSET  10.383700   0.000000   0.000000
                    CHANNELS 3 Zrotation Xrotation Yrotation
                    JOINT LeftElbow
                    {
                        OFFSET  26.662100   0.001476   0.000517
                        CHANNELS 3 Zrotation Xrotation Yrotation
                        JOINT LeftWrist
                        {
                            OFFSET  28.869000  -0.000025  -0.000106
                            CHANNELS 3 Zrotation Xrotation Yrotation
                            JOINT LeftFinger0
                            {
                                OFFSET   2.044660  -2.323460   3.252850
                                CHANNELS 3 Zrotation Xrotation Yrotation
                                JOINT LeftFinger01
                                {
                                    OFFSET   3.088130   0.000000   0.000000
                                    CHANNELS 3 Zrotation Xrotation Yrotation
                                    JOINT LeftFinger02
                                    {
                                        OFFSET   2.639460   0.000000   0.000000
                                        CHANNELS 3 Zrotation Xrotation Yrotation
                                        End Site
                                        {
                                            OFFSET   2.582190   0.000000   0.000000
                                        }
                                    }
                                }
                            }
                            JOINT LeftFinger1
                            {
                                OFFSET   8.364480   0.000000   3.252850
                                CHANNELS 3 Zrotation Xrotation Yrotation
                                JOINT LeftFinger11
                                {
                                    OFFSET   4.646930   0.000000   0.000000
                                    CHANNELS 3 Zrotation Xrotation Yrotation
                                    JOINT LeftFinger12
                                    {
                                        OFFSET   2.323460   0.000000   0.000000
                                        CHANNELS 3 Zrotation Xrotation Yrotation
                                        End Site
                                        {
                                            OFFSET   2.273050   0.000000   0.000000
                                        }
                                    }
                                }
                            }
                            JOINT LeftFinger2
                            {
                                OFFSET   8.364490   0.000015   1.078090
                                CHANNELS 3 Zrotation Xrotation Yrotation
                                JOINT LeftFinger21
                                {
                                    OFFSET   5.111620   0.000000   0.000000
                                    CHANNELS 3 Zrotation Xrotation Yrotation
                                    JOINT LeftFinger22
                                    {
                                        OFFSET   2.788160   0.000016   0.000000
                                        CHANNELS 3 Zrotation Xrotation Yrotation
                                        End Site
                                        {
                                            OFFSET   2.727660   0.000000   0.000000
                                        }
                                    }
                                }
                            }
                            JOINT LeftFinger3
                            {
                                OFFSET   7.899780   0.000017  -1.078090
                                CHANNELS 3 Zrotation Xrotation Yrotation
                                JOINT LeftFinger31
                                {
                                    OFFSET   4.646930   0.000000   0.000000
                                    CHANNELS 3 Zrotation Xrotation Yrotation
                                    JOINT LeftFinger32
                                    {
                                        OFFSET   2.323470   0.000000   0.000000
                                        CHANNELS 3 Zrotation Xrotation Yrotation
                                        End Site
                                        {
                                            OFFSET   2.273050   0.000000   0.000000
                                        }
                                    }
                                }
                            }
                            JOINT LeftFinger4
                            {
                                OFFSET   7.435090   0.000000  -3.252850
                                CHANNELS 3 Zrotation Xrotation Yrotation
                                JOINT LeftFinger41
                                {
                                    OFFSET   3.717550   0.000000   0.000000
                                    CHANNELS 3 Zrotation Xrotation Yrotation
                                    JOINT LeftFinger42
                                    {
                                        OFFSET   1.858770   0.000000   0.000000
                                        CHANNELS 3 Zrotation Xrotation Yrotation
                                        End Site
                                        {
                                            OFFSET   1.818440   0.000000   0.000000
                                        }
                                    }
                                }
                            }
                        }
                    }
                }
            }
            JOINT RightCollar
            {
                OFFSET  -3.911900  19.017000  -0.467063
                CHANNELS 3 Zrotation Xrotation Yrotation
                JOINT RightShoulder
                {
                    OFFSET -10.383700   0.000019   0.000000
                    CHANNELS 3 Zrotation Xrotation Yrotation
                    JOINT RightElbow
                    {
                        OFFSET -26.662100   0.001175   0.000102
                        CHANNELS 3 Zrotation Xrotation Yrotation
                        JOINT RightWrist
                        {
                            OFFSET -28.869000   0.000016  -0.000079
                            CHANNELS 3 Zrotation Xrotation Yrotation
                            JOINT RightFinger0
                            {
                                OFFSET  -2.044660  -2.323490   3.252850
                                CHANNELS 3 Zrotation Xrotation Yrotation
                                JOINT RightFinger01
                                {
                                    OFFSET  -3.088140   0.000000   0.000000
                                    CHANNELS 3 Zrotation Xrotation Yrotation
                                    JOINT RightFinger02
                                    {
                                        OFFSET  -2.639460   0.000000   0.000000
                                        CHANNELS 3 Zrotation Xrotation Yrotation
                                        End Site
                                        {
                                            OFFSET  -2.582190   0.000000   0.000000
                                        }
                                    }
                                }
                            }
                            JOINT RightFinger1
                            {
                                OFFSET  -8.364480   0.000000   3.252850
                                CHANNELS 3 Zrotation Xrotation Yrotation
                                JOINT RightFinger11
                                {
                                    OFFSET  -4.646930   0.000000   0.000000
                                    CHANNELS 3 Zrotation Xrotation Yrotation
                                    JOINT RightFinger12
                                    {
                                        OFFSET  -2.323470   0.000000   0.000000
                                        CHANNELS 3 Zrotation Xrotation Yrotation
                                        End Site
                                        {
                                            OFFSET  -2.273050   0.000000   0.000000
                                        }
                                    }
                                }
                            }
                            JOINT RightFinger2
                            {
                                OFFSET  -8.364480   0.000000   1.078090
                                CHANNELS 3 Zrotation Xrotation Yrotation
                                JOINT RightFinger21
                                {
                                    OFFSET  -5.111620   0.000000   0.000000
                                    CHANNELS 3 Zrotation Xrotation Yrotation
                                    JOINT RightFinger22
                                    {
                                        OFFSET  -2.788160   0.000000   0.000000
                                        CHANNELS 3 Zrotation Xrotation Yrotation
                                        End Site
                                        {
                                            OFFSET  -2.727660   0.000000   0.000000
                                        }
                                    }
                                }
                            }
                            JOINT RightFinger3
                            {
                                OFFSET  -7.899780   0.000000  -1.078090
                                CHANNELS 3 Zrotation Xrotation Yrotation
                                JOINT RightFinger31
                                {
                                    OFFSET  -4.646930   0.000000   0.000000
                                    CHANNELS 3 Zrotation Xrotation Yrotation
                                    JOINT RightFinger32
                                    {
                                        OFFSET  -2.323470   0.000000   0.000000
                                        CHANNELS 3 Zrotation Xrotation Yrotation
                                        End Site
                                        {
                                            OFFSET  -2.273050   0.000000   0.000000
                                        }
                                    }
                                }
                            }
                            JOINT RightFinger4
                            {
                                OFFSET  -7.435090   0.000000  -3.252850
                                CHANNELS 3 Zrotation Xrotation Yrotation
                                JOINT RightFinger41
                                {
                                    OFFSET  -3.717550   0.000000   0.000000
                                    CHANNELS 3 Zrotation Xrotation Yrotation
                                    JOINT RightFinger42
                                    {
                                        OFFSET  -1.858770   0.000000   0.000000
                                        CHANNELS 3 Zrotation Xrotation Yrotation
                                        End Site
                                        {
                                            OFFSET  -1.818440   0.000000   0.000000
                                        }
                                    }
                                }
                            }
                        }
                    }
                }
            }
        }
    }
    JOINT LeftHip
    {
        OFFSET   9.783040   0.000000   0.000000
        CHANNELS 3 Zrotation Xrotation Yrotation
        JOINT LeftKnee
        {
            OFFSET   0.000032 -41.789100  -0.002222
            CHANNELS 3 Zrotation Xrotation Yrotation
            JOINT LeftAnkle
            {
                OFFSET   0.000087 -41.133200  -0.000135
                CHANNELS 3 Zrotation Xrotation Yrotation
                JOINT LeftToe
                {
                    OFFSET   0.000000  -6.358960  14.674500
                    CHANNELS 3 Zrotation Xrotation Yrotation
                    End Site
                    {
                        OFFSET   0.000000   0.000000   3.913200
                    }
                }
            }
        }
    }
    JOINT RightHip
    {
        OFFSET  -9.783040   0.000000   0.000000
        CHANNELS 3 Zrotation Xrotation Yrotation
        JOINT RightKnee
        {
            OFFSET   0.000047 -41.789100  -0.000896
            CHANNELS 3 Zrotation Xrotation Yrotation
            JOINT RightAnkle
            {
                OFFSET  -0.000117 -41.133300  -0.000248
                CHANNELS 3 Zrotation Xrotation Yrotation
                JOINT RightToe
                {
                    OFFSET   0.000000  -6.358970  14.674500
                    CHANNELS 3 Zrotation Xrotation Yrotation
                    End Site
                    {
                        OFFSET   0.000000   0.000000   3.913200
                    }
                }
            }
        }
    }
}
MOTION
Frames: 4
Frame Time:   0.016667
  0.832252  89.493500   3.129460  -6.283030 -15.032300  -8.833450   5.086270  10.949900  -4.232110  11.304500  21.434600  -9.719320  10.572300   6.438410  -1.202160  17.902000  11.727500   1.723140  -2.310820   2.695690   2.638950 -68.950100  33.447700 -21.676900  -5.654120 -13.967900 -12.143900   7.990730  -4.562440   9.843210  41.875800  31.061100 -65.139800 -24.355400   0.000585   0.003647  -7.177670   0.000470  -0.001398 -35.221400   6.703520  -9.388700 -29.267400   0.009907   0.000721 -20.487100   0.004176  -0.004198 -28.641200   2.867240  -5.233860 -40.863400  -0.001488  -0.000111 -27.215000  -0.000138  -0.000610 -28.793300  -0.476019   0.866153 -42.169300  -0.000564   0.000720 -28.084700  -0.000532  -0.000755 -36.610000  -0.589434   0.793332 -54.921100  -0.001028   0.000570 -36.577400  -0.000942   0.000873  -0.113358  -2.914770  10.771300  54.333700  30.675300  50.590000  -6.536010 -25.021900 111.174000 -27.086300 -40.168600  13.074800 -44.404700  40.982400  84.244600  10.582900  -0.004758  -0.000411   0.291453   0.008312  -0.001698  13.550100   4.720980  18.854700  11.728100   0.002278  -0.000577   8.209670   0.001081   0.000795  16.918500   4.561730  14.653900  17.505200  -0.004406  -0.001622  11.658500  -0.004456  -0.002139  28.717500   3.837280   6.962980  43.378000   0.001448  -0.001959  28.889700  -0.004154   0.006571  25.451400   1.023410   2.165350  38.209900  -0.000192  -0.000822  25.447800  -0.004634  -0.002707   4.024050  21.139600   5.823880   0.747833   0.102928  16.464300  -2.275130  -4.329130   2.517980   0.000000   0.000000   0.000000   3.345030  12.792400  -4.254300   1.116770   5.497850  -6.584870  -3.578410  -1.741840   2.002860   0.000000   0.000000  -0.000000
  0.831938  89.493200   3.119460  -6.278710 -15.027400  -8.834120   5.085700  10.947400  -4.232410  11.303100  21.429500  -9.719470  10.570100   6.459680  -1.203900  17.902300  11.766700   2.269380  -2.312870   2.692310   2.628390 -68.967800  33.444200 -21.669100  -5.653170 -13.955600 -12.149800   8.005490  -4.564680   9.835420  41.889700  31.095600 -65.164200 -24.365700   0.000527   0.003565  -7.182860   0.000437  -0.001257 -35.219600   6.682530  -9.360690 -29.267500   0.010072   0.000652 -20.487200   0.004272  -0.004158 -28.644400   2.849330  -5.201030 -40.857400  -0.001487  -0.000108 -27.210900  -0.000207  -0.000546 -28.792900  -0.488351   0.888619 -42.153400  -0.000564   0.000722 -28.074100  -0.000531  -0.000679 -36.601700  -0.604595   0.813994 -54.908900  -0.001032   0.000572 -36.569300  -0.000940   0.000946  -0.113693  -2.912250  10.756900  54.380400  30.660700  50.528900  -6.469490 -24.931900 111.221000 -26.969600 -40.319300  13.182700 -44.381000  40.988100  84.257200  10.560700  -0.004837  -0.000415   0.280354   0.008310  -0.001698  13.304900   4.667280  18.981000  11.524300   0.002215  -0.000579   8.067040   0.001049   0.000870  16.432000   4.474170  14.816800  17.014000  -0.004480  -0.001699  11.331300  -0.004492  -0.002130  28.548900   3.919160   7.156300  42.274300   0.001436  -0.001973  28.154700  -0.004126   0.006588  24.788400   0.663109   1.425390  37.190700  -0.000290  -0.000614  24.769000  -0.004582  -0.002700   4.027730  21.118200   5.823120   0.749043   0.123310  16.459400  -2.279590  -4.329270   2.520130   0.000000   0.000000  -0.000000   3.343610  12.786100  -4.255080   1.116580   5.488460  -6.579510  -3.578800  -1.733000   2.003010  -0.000000   0.000000   0.000000
  0.831620  89.493000   3.110890  -6.274260 -15.019200  -8.835880   5.085480  10.943300  -4.233910  11.302200  21.421100  -9.721770  10.569000   6.488900  -1.207960  17.905800  11.820000   2.897310  -2.316020   2.685700   2.618390 -68.987800  33.441300 -21.658000  -5.651830 -13.943500 -12.151300   8.015350  -4.565950   9.833800  41.900700  31.119900 -65.181500 -24.374100   0.000468   0.003487  -7.187070   0.000402  -0.001119 -35.220200   6.662800  -9.332830 -29.267600   0.010236   0.000580 -20.487300   0.004364  -0.004118 -28.646500   2.837540  -5.179440 -40.853200  -0.001486  -0.000105 -27.208000  -0.000280  -0.000483 -28.792500  -0.500418   0.910589 -42.144700  -0.000563   0.000724 -28.068400  -0.000531  -0.000605 -36.595900  -0.619468   0.834175 -54.900600  -0.001037   0.000576 -36.563800  -0.000937   0.001020  -0.113906  -2.906620  10.749500  54.435000  30.641600  50.459500  -6.438480 -24.814600 111.288000 -26.845600 -40.394500  13.308600 -44.384600  41.008100  84.286400  10.538500  -0.004918  -0.000422   0.269254   0.008309  -0.001697  13.085300   4.607230  19.065000  11.339500   0.002153  -0.000580   7.937680   0.001018   0.000947  16.010200   4.396930  14.958000  16.587700  -0.004553  -0.001777  11.047400  -0.004529  -0.002121  28.493800   4.005090   7.331210  41.157600   0.001423  -0.001986  27.411000  -0.004098   0.006605  24.282600   0.286362   0.630139  36.421000  -0.000387  -0.000407  24.256400  -0.004530  -0.002685   4.031690  21.098400   5.822620   0.751825   0.135584  16.455300  -2.283780  -4.329310   2.523890  -0.000000   0.000000  -0.000000   3.339580  12.779200  -4.257450   1.118330   5.477420  -6.569480  -3.579500  -1.722870   2.003540   0.000000   0.000000  -0.000000
  0.831188  89.492800   3.105170  -6.270340 -15.011800  -8.837100   5.085940  10.935900  -4.239040  11.302900  21.406000  -9.731130  10.566000   6.526130  -1.214310  17.907200  11.888700   3.596400  -2.322420   2.678830   2.615090 -69.006100  33.447300 -21.653600  -5.651550 -13.944900 -12.133900   8.011140  -4.556610   9.833060  41.884800  31.102100 -65.169100 -24.380800   0.000396   0.003431  -7.190430   0.000367  -0.000984 -35.224600   6.656940  -9.323140 -29.267500   0.010393   0.000511 -20.487200   0.004454  -0.004081 -28.646500   2.837410  -5.179220 -40.854300  -0.001488  -0.000109 -27.208900  -0.000360  -0.000411 -28.792200  -0.506876   0.922300 -42.148800  -0.000561   0.000722 -28.071200  -0.000530  -0.000533 -36.604900  -0.627580   0.844818 -54.914400  -0.001040   0.000578 -36.573000  -0.000933   0.001095  -0.109919  -2.891650  10.753500  54.498500  30.613900  50.383300  -6.409350 -24.661500 111.369000 -26.700400 -40.376300  13.460000 -44.465400  41.045300  84.325000  10.545800  -0.004989  -0.000426   0.272907   0.008308  -0.001700  13.021500   4.547710  18.933000  11.274700   0.002096  -0.000588   7.892360   0.000984   0.001031  15.870500   4.370160  15.004600  16.446200  -0.004630  -0.001862  10.953300  -0.004561  -0.002115  28.463200   4.090730   7.498620  40.059800   0.001411  -0.002002  26.679900  -0.004066   0.006627  24.193200  -0.000010   0.005332  36.288700  -0.000484  -0.000232  24.168200  -0.004470  -0.002654   4.033700  21.084700   5.822340   0.754276   0.134833  16.450400  -2.286490  -4.326300   2.530690   0.000000   0.000000  -0.000000   3.330960  12.772900  -4.262850   1.123170   5.464850  -6.556730  -3.581090  -1.711760   2.006580   0.000000   0.000000   0.000000
